<?xml version="1.0" encoding="utf-8"?>
<!-- Generator: Adobe Illustrator 22.0.0, SVG Export Plug-In . SVG Version: 6.00 Build 0)  -->
<svg version="1.1" id="Layer_1" xmlns="http://www.w3.org/2000/svg" xmlns:xlink="http://www.w3.org/1999/xlink" x="0px" y="0px"
	 width="360px" height="360px" viewBox="0 0 360 360" enable-background="new 0 0 360 360" xml:space="preserve">
<path d="M359.581,139.661c1.774-3.471-2.548-6.551-4.323-3.033c-16.491,23.468-40.386,40.913-67.086,50.685l-4.25-8.843
	c3.259-5.822,5.05-14.678,4.475-21.259c-1.042-11.921-8.671-21.249-18.137-28.545c-0.722-0.556-1.809-0.399-2.328,0.349
	c-5.052,7.285-7.479,16.102-7.141,24.994c0.259,6.818,4.475,15.69,9.119,20.689c3.009,3.24,6.967,5.302,9.4,6.364l3.82,7.957
	c-24.346,7.927-50.723,9.585-75.846,3.546c-2.162-0.519-4.314-1.129-6.464-1.745l2.691-10.53c0.385,0.033,0.751,0.135,1.143,0.135
	c2.77,0,5.708-0.805,8.534-2.368c7.327-4.039,12.558-12.05,14.353-21.974c1.465-8.114,0.573-16.408-0.379-23.542
	c-0.17-1.295-0.921-2.424-2.056-3.095c-1.122-0.665-2.453-0.779-3.652-0.299c-9.558,3.766-17.319,11.756-20.754,21.365
	c-3.471,9.7-3.61,15.354-2.202,28.057l-2.74,10.723c-7.098-2.239-14.117-4.806-20.974-7.354c-3.642-1.357-7.281-2.708-10.933-4.008
	c-14.68-5.236-28.164-9.118-40.905-11.747c-0.716-4.656-0.676-9.35,0.077-13.992c8.571-4.259,13.68-14.56,14.02-24.393
	c0.366-10.539-3.491-20.678-7.554-30.455c-0.408-0.98-1.706-1.299-2.479-0.572c-6.355,5.977-9.878,14.511-12.615,22.872
	c-1.229,3.752-2.356,7.573-2.692,11.507c-0.617,7.232,1.682,14.608,6.088,20.361c-0.722,4.535-0.813,9.113-0.279,13.668
	c-10.815-1.957-21.156-3.045-31.246-3.209c-18.137-0.302-35.197,2.369-50.517,7.81l-4.691-10.43
	c7.469-9.52,9.145-24.139,4.138-37.714c-4.503-12.215-13.086-22.186-20.78-30.578c-0.892-0.975-2.218-1.444-3.523-1.212
	c-1.308,0.217-2.404,1.063-2.935,2.259c-4.9,11.002-7.644,23.176-7.936,35.205c-0.101,4.199,0.057,9.656,2.203,14.577
	c4.114,9.46,13.876,14.355,23.521,18.554l0.005-0.012l5.088,11.312c-7.42,3.005-14.447,6.607-20.886,10.95
	c-3.206,2.607-0.513,6.649,2.956,4.374c17.109-11.533,35.803-16.69,52.16-18.709l0.634,8.4c-5.391,7.823-6.602,19.133-5.371,28.486
	c1.362,10.36,7.455,20.003,16.226,25.682c0.338,0.219,0.71,0.44,1.111,0.41c0.616-0.046,1.021-0.643,1.323-1.181
	c4.416-7.86,7.183-16.775,7.038-25.789c-0.132-8.217-3.862-21.722-15.081-28.264l-0.626-8.299
	c5.707-0.496,11.057-0.631,15.856-0.548c22.505,0.365,46.233,5.216,74.509,15.177c-2.177,3.029-4.208,6.163-5.999,9.411
	c-5.551,3.294-11.152,6.79-15.905,11.44c-6.19,6.051-9.873,13.288-10.371,20.375c-0.175,2.517,0.041,5.05,0.235,7.283l0.934,10.946
	c0.124,1.506,1.05,2.693,2.414,3.085c0.242,0.072,0.5,0.108,0.779,0.108c6.399-0.005,21.778-17.966,23.416-20.133
	c6.331-8.376,6.841-22.548,3.808-31.704c1.763-3.089,3.707-6.092,5.84-8.958c2.369,0.866,4.739,1.727,7.105,2.607
	c10.696,3.972,21.757,8.088,33.108,10.812c10.693,2.564,21.603,3.802,32.507,3.802c0.03,0,0.059-0.003,0.088-0.003l-0.634,6.81
	c-7.313,6.436-16.385,16.434-17.859,25.098c-1.638,9.632,1.828,20.398,9.873,25.944c0.412,0.284,0.879,0.565,1.375,0.509
	c0.626-0.071,1.06-0.639,1.416-1.159c5.211-7.611,10.505-15.393,13.042-24.261c2.088-7.298,0.962-16.8-2.745-23.925l0.856-9.178
	c26.688-0.999,53.022-9.326,75.533-23.688c1.556,1.438,3.179,3.195,4.449,5.018c-3.778,10.404-1.093,24.269,3.505,33.78
	c4.63,9.574,13.478,17.203,23.661,20.401c0.433,0.139,0.872,0.201,1.305,0.201c1.731,0,3.381-1.032,4.075-2.698
	c4.377-10.471,4.065-22.805-0.833-32.982c-4.789-9.954-15.377-18.214-27.155-21.349c-1.328-1.969-2.929-3.815-4.499-5.367
	C337.737,165.179,349.902,153.438,359.581,139.661z M205.673,152.286c2.778-7.763,8.864-14.283,16.432-17.682
	c0.825,6.417,1.48,13.674,0.237,20.54c-1.486,8.227-5.862,15.067-11.709,18.291c-2.502,1.382-5.034,1.95-7.198,1.62
	C202.431,164.996,202.771,160.4,205.673,152.286z M7.069,139.777c-1.723-3.951-1.86-8.454-1.764-12.344
	c0.255-10.631,2.548-21.386,6.644-31.243c6.964,7.686,14.389,16.687,18.291,27.272c4.261,11.549,3.149,23.862-2.752,31.976
	C18.584,151.548,10.372,147.381,7.069,139.777z M151.976,221.757c-4.655,6.164-13.244,14.36-17.347,17.141l-0.72-8.413
	c-0.183-2.141-0.374-4.354-0.227-6.458c0.408-5.798,3.531-11.828,8.795-16.971c3.874-3.786,8.529-6.85,13.251-9.697
	C157.495,205.127,156.587,215.66,151.976,221.757z M350.903,203.662c4.137,8.594,4.506,18.962,1.026,27.896
	c-8.498-2.909-15.828-9.362-19.717-17.409c-3.825-7.913-6.409-19.859-3.716-28.685C338.296,188.456,346.936,195.414,350.903,203.662
	z"/>
</svg>
